/* XPM */
static char * pyxpcom_gui_app_xpm[] = {
"32 32 70 1",
" 	c None",
".	c #3672A3",
"+	c #3671A2",
"@	c #3670A1",
"#	c #3670A0",
"$	c #366F9F",
"%	c #366E9E",
"&	c #366E9D",
"*	c #366D9B",
"=	c #366C9A",
"-	c #3672A5",
";	c #6291B8",
">	c #5788B1",
",	c #366C99",
"'	c #366B98",
")	c #3673A6",
"!	c #6694BB",
"~	c #FFFFFF",
"{	c #FCFDFE",
"]	c #4A7FAB",
"^	c #366A96",
"/	c #6190B8",
"(	c #F9FBFC",
"_	c #477CA9",
":	c #366A97",
"<	c #5386B1",
"[	c #3672A4",
"}	c #3676AC",
"|	c #3676AB",
"1	c #3675A9",
"2	c #3674A8",
"3	c #3674A7",
"4	c #FFCC3E",
"5	c #FFCB3C",
"6	c #FFCA3B",
"7	c #FFCA3A",
"8	c #3677AD",
"9	c #366E9C",
"0	c #3678AE",
"a	c #FFC938",
"b	c #366B99",
"c	c #FFCD3F",
"d	c #3676AA",
"e	c #FFCC41",
"f	c #FFCE42",
"g	c #FFCD41",
"h	c #FFD550",
"i	c #FFD54E",
"j	c #FFD44D",
"k	c #FFD34C",
"l	c #FFD24A",
"m	c #FFD249",
"n	c #FFD148",
"o	c #FFD046",
"p	c #FFCF45",
"q	c #FFCF43",
"r	c #FFD753",
"s	c #FFD651",
"t	c #FFD654",
"u	c #FFD754",
"v	c #FFE18A",
"w	c #FFE497",
"x	c #FFD863",
"y	c #FFDE7D",
"z	c #FFD34E",
"A	c #FFF8E4",
"B	c #FFFBF0",
"C	c #FFD55B",
"D	c #FFD047",
"E	c #FFD049",
"                                ",
"                                ",
"           .+@#$%&*=            ",
"          -;>@#$%&*=,'          ",
"         )!~{]#$%&*=,'^         ",
"         )/~(_#$%&*=,':         ",
"         )-<]@#$%&*=,':         ",
"         )-[+@#$%&*=,':         ",
"                %&*=,':         ",
"                %&*=,':         ",
"    }|123)-[+@#$%&*=,':  4567   ",
"   8}|123)-.+@#$%9*=,':  4567   ",
"  08}|123)-.+@#$%9*=,':  4567a  ",
"  08}|123)-.+@#$%9*=b'  c4567a  ",
"  08}|123)-.+@#$%9*=b'  c4567a  ",
"  08}d123)-.           ec4567a  ",
"  08}d123             fgc4567a  ",
"  08}d12    hijklmnopqfgc4567a  ",
"  08}d12  rshijklmnopqfgc4567a  ",
"  08}d1  trshijklmnopqfgc4567a  ",
"  08}d1  urshijklmnopqfgc4567a  ",
"   8}d1  urshijklmnopqfgc4567   ",
"    }d1  urshijklmnopqfgc456    ",
"         urshijk                ",
"         urshijk                ",
"         urshijklmnopqf         ",
"         urshijklmnvwof         ",
"         urshijklmx~~yf         ",
"          rshijklmzABC          ",
"           shijklmnDE           ",
"             ijklmn             ",
"                                "};
