/* XPM */
static char * tina_xpm[] = {
"16 16 134 2",
"  	c None",
". 	c #FFFFFF",
"+ 	c #FCF8F7",
"@ 	c #D89C9B",
"# 	c #C97370",
"$ 	c #CA7372",
"% 	c #CA7573",
"& 	c #CA7473",
"* 	c #C9726F",
"= 	c #D38E8C",
"- 	c #F8EEEE",
"; 	c #CB8280",
"> 	c #AB2624",
", 	c #AB2623",
"' 	c #AA2320",
") 	c #AA2220",
"! 	c #AB2522",
"~ 	c #B9504E",
"{ 	c #A12C2B",
"] 	c #9C0907",
"^ 	c #9D0D0B",
"/ 	c #9B0705",
"( 	c #970000",
"_ 	c #990301",
": 	c #990302",
"< 	c #A51F1D",
"[ 	c #B03B39",
"} 	c #920000",
"| 	c #982B2A",
"1 	c #950302",
"2 	c #940000",
"3 	c #B24747",
"4 	c #F2E0E0",
"5 	c #FEFEFE",
"6 	c #9D5655",
"7 	c #890000",
"8 	c #942B2B",
"9 	c #8C0000",
"0 	c #D39999",
"a 	c #DFD3D3",
"b 	c #A65757",
"c 	c #A95A5A",
"d 	c #B77676",
"e 	c #AF7777",
"f 	c #AA5A5A",
"g 	c #A65353",
"h 	c #8F2020",
"i 	c #8A0000",
"j 	c #860303",
"k 	c #8F292A",
"l 	c #9B292A",
"m 	c #F7F7F7",
"n 	c #7B1416",
"o 	c #8C0103",
"p 	c #8A0102",
"q 	c #CB8E8E",
"r 	c #F6F5F5",
"s 	c #871112",
"t 	c #8B0304",
"u 	c #8B0204",
"v 	c #8A0204",
"w 	c #810204",
"x 	c #8C292C",
"y 	c #860709",
"z 	c #820A0D",
"A 	c #840103",
"B 	c #850205",
"C 	c #860508",
"D 	c #E7CECF",
"E 	c #E5D6D6",
"F 	c #830709",
"G 	c #850104",
"H 	c #7B0104",
"I 	c #862A2D",
"J 	c #7E0206",
"K 	c #7F0206",
"L 	c #850E12",
"M 	c #F7EFEF",
"N 	c #C19C9D",
"O 	c #7C0003",
"P 	c #760205",
"Q 	c #83292E",
"R 	c #790106",
"S 	c #770003",
"T 	c #9E464A",
"U 	c #6A090E",
"V 	c #790006",
"W 	c #700106",
"X 	c #7F292E",
"Y 	c #730107",
"Z 	c #720005",
"` 	c #974145",
" .	c #F8F4F4",
"..	c #B8989A",
"+.	c #99464A",
"@.	c #75060D",
"#.	c #730007",
"$.	c #6C0107",
"%.	c #7B292E",
"&.	c #6E0108",
"*.	c #680000",
"=.	c #E4D1D2",
"-.	c #CFBDBE",
";.	c #6B050C",
">.	c #6F0107",
",.	c #6E0107",
"'.	c #660107",
").	c #752E33",
"!.	c #680009",
"~.	c #6A0008",
"{.	c #6A070F",
"].	c #680810",
"^.	c #5F0000",
"/.	c #690009",
"(.	c #5C0107",
"_.	c #AB8D8F",
":.	c #5A0008",
"<.	c #63000A",
"[.	c #630009",
"}.	c #5C0008",
"|.	c #85565A",
"1.	c #E1E1E1",
"2.	c #846E70",
"3.	c #5B2E32",
"4.	c #502226",
"5.	c #491B1F",
"6.	c #47181C",
"7.	c #45171B",
"8.	c #44161A",
"9.	c #46181C",
"0.	c #4F2024",
"a.	c #592B2F",
"b.	c #785B5D",
"c.	c #D6D4D4",
". . . . . . . . . . . . . . . . ",
". + @ # $ % % % % % % & * = - . ",
". ; > , ' ) ) ) ) ) ) ' ! > ~ . ",
". { ] ^ / ( _ _ _ _ _ : < [ } . ",
". | 1 2 3 4 . 5 5 5 5 5 . 6 7 . ",
". 8 9 0 a b c d . e f g h i j . ",
". k l m n o p q r s t u v v w . ",
". x y z A B C D E F G G G G H . ",
". I J K K K L M N O K K K J P . ",
". Q R R R S T . U V R R R R W . ",
". X Y Y Z `  ...+.@.Y Y Y #.$.. ",
". %.&.*.=.. . . -.;.>.>.>.,.'.. ",
". ).!.~.{.].].].^.~.~.~.~./.(.. ",
". _.:.<.[.[.[.[.[.[.[.[.<.}.|.. ",
". 1.2.3.4.5.6.7.8.9.5.0.a.b.c.. ",
". . . . . . . . . . . . . . . . "};
